<?xml version="1.0" encoding="UTF-8" standalone="no"?>
<!DOCTYPE svg PUBLIC "-//W3C//DTD SVG 1.1//EN" "http://www.w3.org/Graphics/SVG/1.1/DTD/svg11.dtd">
<svg width="100%" height="100%" viewBox="0 0 390 390" version="1.1" xmlns="http://www.w3.org/2000/svg" xmlns:xlink="http://www.w3.org/1999/xlink" xml:space="preserve" xmlns:serif="http://www.serif.com/" style="fill-rule:evenodd;clip-rule:evenodd;stroke-linecap:round;stroke-linejoin:round;stroke-miterlimit:1.5;">
    <rect id="Artboard1" x="0" y="0" width="390" height="390" style="fill:none;"/>
    <clipPath id="_clip1">
        <rect id="Artboard11" serif:id="Artboard1" x="0" y="0" width="390" height="390"/>
    </clipPath>
    <g clip-path="url(#_clip1)">
        <circle id="screen" cx="195" cy="195" r="195"/>
        <g id="tick-marks" serif:id="tick marks">
            <g id="major-axis-lines" serif:id="major axis lines">
                <path id="axis1" d="M292.5,26.125L97.5,363.875" style="fill:none;stroke:white;stroke-width:4.51px;"/>
                <path id="axis2" d="M363.875,97.5L26.125,292.5" style="fill:none;stroke:white;stroke-width:4.51px;"/>
                <path id="axis3" d="M390,195L0,195" style="fill:none;stroke:white;stroke-width:4.51px;"/>
                <path id="axis4" d="M363.875,292.5L26.125,97.5" style="fill:none;stroke:white;stroke-width:4.51px;"/>
                <path id="axis5" d="M292.5,363.875L97.5,26.125" style="fill:none;stroke:white;stroke-width:4.51px;"/>
                <path id="axis0" d="M195,-0L195,390" style="fill:none;stroke:white;stroke-width:4.51px;"/>
            </g>
            <g id="axis-lines-2" serif:id="axis lines 2">
                <path id="axis01" serif:id="axis0" d="M174.617,1.068L215.383,388.932" style="fill:none;stroke:white;stroke-width:1.81px;"/>
                <path id="axis11" serif:id="axis1" d="M274.314,16.859L115.686,373.141" style="fill:none;stroke:white;stroke-width:1.81px;"/>
                <path id="axis21" serif:id="axis2" d="M352.758,80.382L37.242,309.618" style="fill:none;stroke:white;stroke-width:1.81px;"/>
                <path id="axis31" serif:id="axis3" d="M388.932,174.617L1.068,215.383" style="fill:none;stroke:white;stroke-width:1.81px;"/>
                <path id="axis41" serif:id="axis4" d="M373.141,274.314L16.859,115.686" style="fill:none;stroke:white;stroke-width:1.81px;"/>
                <path id="axis51" serif:id="axis5" d="M309.618,352.758L80.382,37.242" style="fill:none;stroke:white;stroke-width:1.81px;"/>
            </g>
            <g id="axis-lines-3" serif:id="axis lines 3">
                <path id="axis02" serif:id="axis0" d="M154.457,4.261L235.543,385.739" style="fill:none;stroke:white;stroke-width:1.81px;"/>
                <path id="axis12" serif:id="axis1" d="M255.258,9.544L134.742,380.456" style="fill:none;stroke:white;stroke-width:1.81px;"/>
                <path id="axis22" serif:id="axis2" d="M339.913,64.52L50.087,325.48" style="fill:none;stroke:white;stroke-width:1.81px;"/>
                <path id="axis32" serif:id="axis3" d="M385.739,154.457L4.261,235.543" style="fill:none;stroke:white;stroke-width:1.81px;"/>
                <path id="axis42" serif:id="axis4" d="M380.456,255.258L9.544,134.742" style="fill:none;stroke:white;stroke-width:1.81px;"/>
                <path id="axis52" serif:id="axis5" d="M325.48,339.913L64.52,50.087" style="fill:none;stroke:white;stroke-width:1.81px;"/>
            </g>
            <g id="axis-lines-4" serif:id="axis lines 4">
                <path id="axis03" serif:id="axis0" d="M134.742,9.544L255.258,380.456" style="fill:none;stroke:white;stroke-width:1.81px;"/>
                <path id="axis13" serif:id="axis1" d="M235.543,4.261L154.457,385.739" style="fill:none;stroke:white;stroke-width:1.81px;"/>
                <path id="axis23" serif:id="axis2" d="M325.48,50.087L64.52,339.913" style="fill:none;stroke:white;stroke-width:1.81px;"/>
                <path id="axis33" serif:id="axis3" d="M380.456,134.742L9.544,255.258" style="fill:none;stroke:white;stroke-width:1.81px;"/>
                <path id="axis43" serif:id="axis4" d="M385.739,235.543L4.261,154.457" style="fill:none;stroke:white;stroke-width:1.81px;"/>
                <path id="axis53" serif:id="axis5" d="M339.913,325.48L50.087,64.52" style="fill:none;stroke:white;stroke-width:1.81px;"/>
            </g>
            <g id="axis-lines-5" serif:id="axis lines 5">
                <path id="axis04" serif:id="axis0" d="M115.686,16.859L274.314,373.141" style="fill:none;stroke:white;stroke-width:1.81px;"/>
                <path id="axis14" serif:id="axis1" d="M215.383,1.068L174.617,388.932" style="fill:none;stroke:white;stroke-width:1.81px;"/>
                <path id="axis24" serif:id="axis2" d="M309.618,37.242L80.382,352.758" style="fill:none;stroke:white;stroke-width:1.81px;"/>
                <path id="axis34" serif:id="axis3" d="M373.141,115.686L16.859,274.314" style="fill:none;stroke:white;stroke-width:1.81px;"/>
                <path id="axis44" serif:id="axis4" d="M388.932,215.383L1.068,174.617" style="fill:none;stroke:white;stroke-width:1.81px;"/>
                <path id="axis54" serif:id="axis5" d="M352.758,309.618L37.242,80.382" style="fill:none;stroke:white;stroke-width:1.81px;"/>
            </g>
            <circle id="axis-line-mask" serif:id="axis line mask" cx="195" cy="195" r="188" style="fill:rgb(151,17,17);"/>
            <clipPath id="_clip2">
                <circle cx="195" cy="195" r="188"/>
            </clipPath>
            <g clip-path="url(#_clip2)">
                <circle id="screen1" serif:id="screen" cx="195" cy="195" r="195" style="fill:url(#_Radial3);"/>
            </g>
        </g>
        <g id="numerals">
            <path id="I" d="M253.244,87.498L255.413,88.751L283.201,40.621L281.031,39.369L281.6,38.384L287.894,42.017L287.325,43.002L285.155,41.75L257.368,89.879L259.537,91.132L258.969,92.117L252.675,88.483L253.244,87.498Z" style="fill:white;fill-rule:nonzero;stroke:white;stroke-width:0.9px;stroke-linecap:butt;stroke-miterlimit:2;"/>
            <path d="M297.741,128.511L298.994,130.68L347.123,102.893L345.871,100.723L346.856,100.155L350.49,106.448L349.504,107.017L348.252,104.847L300.123,132.635L301.375,134.804L300.39,135.373L296.756,129.08L297.741,128.511Z" style="fill:white;fill-rule:nonzero;stroke:white;stroke-width:0.9px;stroke-linecap:butt;stroke-miterlimit:2;"/>
            <path d="M300.642,133.534L301.894,135.704L350.024,107.916L348.771,105.747L349.756,105.178L353.39,111.471L352.405,112.04L351.152,109.871L303.023,137.658L304.275,139.828L303.29,140.396L299.656,134.103L300.642,133.534Z" style="fill:white;fill-rule:nonzero;stroke:white;stroke-width:0.9px;stroke-linecap:butt;stroke-miterlimit:2;"/>
            <path d="M317.221,185.889L317.221,188.394L372.796,188.394L372.796,185.889L373.934,185.889L373.934,193.157L372.796,193.157L372.796,190.651L317.221,190.651L317.221,193.157L316.084,193.157L316.084,185.889L317.221,185.889Z" style="fill:white;fill-rule:nonzero;stroke:white;stroke-width:0.9px;stroke-linecap:butt;stroke-miterlimit:2;"/>
            <path d="M317.221,191.69L317.221,194.195L372.796,194.195L372.796,191.69L373.934,191.69L373.934,198.957L372.796,198.957L372.796,196.452L317.221,196.452L317.221,198.957L316.084,198.957L316.084,191.69L317.221,191.69Z" style="fill:white;fill-rule:nonzero;stroke:white;stroke-width:0.9px;stroke-linecap:butt;stroke-miterlimit:2;"/>
            <path d="M317.221,197.49L317.221,199.995L372.796,199.995L372.796,197.49L373.934,197.49L373.934,204.757L372.796,204.757L372.796,202.252L317.221,202.252L317.221,204.757L316.084,204.757L316.084,197.49L317.221,197.49Z" style="fill:white;fill-rule:nonzero;stroke:white;stroke-width:0.9px;stroke-linecap:butt;stroke-miterlimit:2;"/>
            <path d="M306.852,245.709L305.6,247.878L353.729,275.666L354.982,273.496L355.967,274.065L352.333,280.359L351.348,279.79L352.601,277.62L304.471,249.833L303.219,252.003L302.233,251.434L305.867,245.14L306.852,245.709Z" style="fill:white;fill-rule:nonzero;stroke:white;stroke-width:0.9px;stroke-linecap:butt;stroke-miterlimit:2;"/>
            <path d="M303.952,250.732L302.699,252.902L350.829,280.689L352.081,278.52L353.067,279.088L349.433,285.382L348.448,284.813L349.7,282.644L301.571,254.856L300.318,257.026L299.333,256.457L302.967,250.163L303.952,250.732Z" style="fill:white;fill-rule:nonzero;stroke:white;stroke-width:0.9px;stroke-linecap:butt;stroke-miterlimit:2;"/>
            <path d="M301.052,255.755L299.799,257.925L347.929,285.712L349.181,283.543L350.166,284.112L346.533,290.405L345.548,289.837L346.8,287.667L298.671,259.879L297.418,262.049L296.433,261.48L300.067,255.187L301.052,255.755Z" style="fill:white;fill-rule:nonzero;stroke:white;stroke-width:0.9px;stroke-linecap:butt;stroke-miterlimit:2;"/>
            <path d="M298.152,260.779L296.899,262.948L345.029,290.736L346.281,288.566L347.266,289.135L343.633,295.429L342.647,294.86L343.9,292.69L295.771,264.903L294.518,267.072L293.533,266.504L297.167,260.21L298.152,260.779Z" style="fill:white;fill-rule:nonzero;stroke:white;stroke-width:0.9px;stroke-linecap:butt;stroke-miterlimit:2;"/>
            <path d="M291.478,345.914L285.438,349.401L284.869,348.415L287.039,347.163L259.137,308.857L278.419,352.139L280.55,350.909L281.118,351.895L276.896,354.332L276.328,353.347L278.087,352.331L254.379,299.126L254.868,298.844L289.15,345.944L290.909,344.929L291.478,345.914Z" style="fill:white;fill-rule:nonzero;stroke:white;stroke-width:0.9px;stroke-linecap:butt;stroke-miterlimit:2;"/>
            <path d="M205.995,373.934L199.021,373.934L199.021,372.796L201.527,372.796L196.516,325.671L191.574,372.796L194.034,372.796L194.034,373.934L189.159,373.934L189.159,372.796L191.19,372.796L197.261,314.865L197.825,314.865L203.964,372.796L205.995,372.796L205.995,373.934Z" style="fill:white;fill-rule:nonzero;stroke:white;stroke-width:0.9px;stroke-linecap:butt;stroke-miterlimit:2;"/>
            <path d="M191.641,317.221L189.136,317.221L189.136,372.796L191.641,372.796L191.641,373.934L184.374,373.934L184.374,372.796L186.879,372.796L186.879,317.221L184.374,317.221L184.374,316.084L191.641,316.084L191.641,317.221Z" style="fill:white;fill-rule:nonzero;stroke:white;stroke-width:0.9px;stroke-linecap:butt;stroke-miterlimit:2;"/>
            <path d="M117.567,356.909L111.527,353.422L112.096,352.437L114.266,353.69L133.489,310.373L105.646,348.713L107.777,349.943L107.208,350.928L102.986,348.491L103.555,347.505L105.314,348.521L139.537,301.387L140.026,301.669L116.377,354.908L118.136,355.924L117.567,356.909Z" style="fill:white;fill-rule:nonzero;stroke:white;stroke-width:0.9px;stroke-linecap:butt;stroke-miterlimit:2;"/>
            <path d="M133.492,300.617L131.323,299.365L103.535,347.494L105.705,348.747L105.136,349.732L98.842,346.098L99.411,345.113L101.581,346.366L129.368,298.236L127.198,296.984L127.767,295.999L134.061,299.632L133.492,300.617Z" style="fill:white;fill-rule:nonzero;stroke:white;stroke-width:0.9px;stroke-linecap:butt;stroke-miterlimit:2;"/>
            <path d="M128.469,297.717L126.299,296.465L98.512,344.594L100.681,345.847L100.113,346.832L93.819,343.198L94.388,342.213L96.557,343.466L124.345,295.336L122.175,294.084L122.744,293.098L129.038,296.732L128.469,297.717Z" style="fill:white;fill-rule:nonzero;stroke:white;stroke-width:0.9px;stroke-linecap:butt;stroke-miterlimit:2;"/>
            <path d="M48.437,299.012L44.95,292.973L45.935,292.404L47.187,294.574L85.494,266.672L42.211,285.954L43.441,288.084L42.456,288.653L40.018,284.431L41.003,283.863L42.019,285.622L95.224,261.914L95.507,262.403L48.406,296.685L49.422,298.444L48.437,299.012Z" style="fill:white;fill-rule:nonzero;stroke:white;stroke-width:0.9px;stroke-linecap:butt;stroke-miterlimit:2;"/>
            <path d="M90.374,258.225L89.121,256.056L40.992,283.843L42.245,286.013L41.26,286.581L37.626,280.288L38.611,279.719L39.864,281.888L87.993,254.101L86.74,251.931L87.725,251.363L91.359,257.656L90.374,258.225Z" style="fill:white;fill-rule:nonzero;stroke:white;stroke-width:0.9px;stroke-linecap:butt;stroke-miterlimit:2;"/>
            <path d="M87.474,253.202L86.221,251.032L38.092,278.82L39.344,280.989L38.359,281.558L34.726,275.264L35.711,274.696L36.963,276.865L85.093,249.078L83.84,246.908L84.825,246.339L88.459,252.633L87.474,253.202Z" style="fill:white;fill-rule:nonzero;stroke:white;stroke-width:0.9px;stroke-linecap:butt;stroke-miterlimit:2;"/>
            <path d="M84.574,248.179L83.321,246.009L35.192,273.797L36.444,275.966L35.459,276.535L31.826,270.241L32.811,269.672L34.063,271.842L82.193,244.054L80.94,241.885L81.925,241.316L85.559,247.61L84.574,248.179Z" style="fill:white;fill-rule:nonzero;stroke:white;stroke-width:0.9px;stroke-linecap:butt;stroke-miterlimit:2;"/>
            <path d="M181.59,72.779L183.756,72.779L188.27,45.641L183.463,17.204L181.59,17.204L181.59,16.066L188.315,16.066L188.315,17.204L186.149,17.204L189.76,38.572L193.371,17.204L191.204,17.204L191.204,16.066L195.899,16.066L195.899,17.204L193.732,17.204L189.963,39.71L195.583,72.779L197.456,72.779L197.456,73.916L190.685,73.916L190.685,72.779L192.852,72.779L188.451,46.779L184.14,72.779L186.307,72.779L186.307,73.916L181.59,73.916L181.59,72.779Z" style="fill:white;fill-rule:nonzero;stroke:white;stroke-width:0.9px;stroke-linecap:butt;stroke-miterlimit:2;"/>
            <path d="M195.876,72.779L198.381,72.779L198.381,17.204L195.876,17.204L195.876,16.066L203.144,16.066L203.144,17.204L200.638,17.204L200.638,72.779L203.144,72.779L203.144,73.916L195.876,73.916L195.876,72.779Z" style="fill:white;fill-rule:nonzero;stroke:white;stroke-width:0.9px;stroke-linecap:butt;stroke-miterlimit:2;"/>
            <path d="M201.676,72.779L204.182,72.779L204.182,17.204L201.676,17.204L201.676,16.066L208.944,16.066L208.944,17.204L206.439,17.204L206.439,72.779L208.944,72.779L208.944,73.916L201.676,73.916L201.676,72.779Z" style="fill:white;fill-rule:nonzero;stroke:white;stroke-width:0.9px;stroke-linecap:butt;stroke-miterlimit:2;"/>
            <path d="M124.787,94.408L126.664,93.325L117.004,67.566L98.622,45.342L97,46.279L96.431,45.294L102.256,41.931L102.824,42.916L100.948,43.999L114.76,60.7L107.203,40.388L105.326,41.472L104.758,40.487L108.823,38.139L109.392,39.124L107.515,40.208L115.504,61.583L136.906,87.412L138.528,86.475L139.097,87.46L133.233,90.846L132.664,89.861L134.541,88.777L117.729,68.461L126.996,93.133L128.872,92.05L129.441,93.035L125.356,95.393L124.787,94.408Z" style="fill:white;fill-rule:nonzero;stroke:white;stroke-width:0.9px;stroke-linecap:butt;stroke-miterlimit:2;"/>
            <path d="M137.16,87.265L139.329,86.012L111.542,37.883L109.372,39.136L108.803,38.151L115.097,34.517L115.666,35.502L113.496,36.755L141.284,84.884L143.453,83.631L144.022,84.617L137.728,88.25L137.16,87.265Z" style="fill:white;fill-rule:nonzero;stroke:white;stroke-width:0.9px;stroke-linecap:butt;stroke-miterlimit:2;"/>
            <path d="M85.348,140.48L86.432,138.603L65.187,121.125L38.156,111.07L37.219,112.692L36.234,112.124L39.597,106.299L40.582,106.868L39.498,108.744L59.81,116.301L43.11,102.489L42.026,104.366L41.041,103.797L43.388,99.732L44.373,100.3L43.29,102.177L60.897,116.694L92.345,128.361L93.281,126.739L94.267,127.308L90.881,133.172L89.896,132.603L90.979,130.726L66.262,121.538L86.623,138.271L87.707,136.395L88.692,136.963L86.333,141.049L85.348,140.48Z" style="fill:white;fill-rule:nonzero;stroke:white;stroke-width:0.9px;stroke-linecap:butt;stroke-miterlimit:2;"/>
            <path d="M72.779,205.397L72.779,202.892L17.204,202.892L17.204,205.397L16.066,205.397L16.066,198.13L17.204,198.13L17.204,200.635L72.779,200.635L72.779,198.13L73.916,198.13L73.916,205.397L72.779,205.397Z" style="fill:white;fill-rule:nonzero;stroke:white;stroke-width:0.9px;stroke-linecap:butt;stroke-miterlimit:2;"/>
            <path d="M72.779,199.71L72.779,197.543L45.641,193.029L17.204,197.837L17.204,199.71L16.066,199.71L16.066,192.984L17.204,192.984L17.204,195.151L38.572,191.54L17.204,187.929L17.204,190.095L16.066,190.095L16.066,185.401L17.204,185.401L17.204,187.567L39.71,191.337L72.779,185.717L72.779,183.843L73.916,183.843L73.916,190.614L72.779,190.614L72.779,188.448L46.779,192.849L72.779,197.159L72.779,194.993L73.916,194.993L73.916,199.71L72.779,199.71Z" style="fill:white;fill-rule:nonzero;stroke:white;stroke-width:0.9px;stroke-linecap:butt;stroke-miterlimit:2;"/>
        </g>
        <g id="minute-hand" serif:id="minute hand">
            <circle id="centre" cx="195" cy="195" r="18" style="fill:rgb(121,121,121);"/>
        </g>
        <g id="pr-subdial" serif:id="pr subdial">
            <circle id="pinion" cx="140" cy="195" r="10"/>
            <path d="M140,185C145.519,185 150,189.481 150,195C150,200.519 145.519,205 140,205C134.481,205 130,200.519 130,195C130,189.481 134.481,185 140,185ZM140,190.868C137.72,190.868 135.868,192.72 135.868,195C135.868,197.28 137.72,199.132 140,199.132C142.28,199.132 144.132,197.28 144.132,195C144.132,192.72 142.28,190.868 140,190.868Z" style="fill:url(#_Radial4);"/>
            <path id="marker" d="M109.465,257.439L103.483,268.38C78.898,254.939 63.609,229.153 63.609,201.134C63.609,170.675 81.645,143.108 109.553,130.908L110.932,134.063C88.194,145.587 72.609,169.067 72.609,196.134C72.609,222.614 87.526,245.662 109.465,257.439Z" style="fill:url(#_Linear5);"/>
            <path d="M121.347,263.935L115.364,274.877C111.776,281.439 103.548,283.85 96.986,280.262C68.058,264.445 50.067,234.103 50.067,201.134C50.067,165.294 71.29,132.855 104.129,118.5C110.982,115.505 118.966,118.632 121.961,125.484L123.34,128.64C126.216,135.218 123.458,142.897 117.054,146.143C98.734,155.427 86.15,174.327 86.15,196.134C86.15,217.467 98.195,236.02 115.87,245.507C119.05,247.214 121.417,250.121 122.445,253.581C123.474,257.041 123.078,260.768 121.347,263.935ZM109.465,257.439C87.526,245.662 72.609,222.614 72.609,196.134C72.609,169.067 88.194,145.587 110.932,134.063L109.553,130.908C81.645,143.108 63.609,170.675 63.609,201.134C63.609,229.153 78.898,254.939 103.483,268.38L109.465,257.439Z" style="fill:url(#_Radial6);"/>
        </g>
        <g id="hr-subdial" serif:id="hr subdial">
            <circle cx="195" cy="287" r="68" style="fill:rgb(11,11,11);"/>
            <circle cx="195" cy="287" r="68" style="fill:rgb(11,11,11);"/>
            <circle cx="195" cy="287" r="68" style="fill:rgb(11,11,11);"/>
        </g>
        <circle id="hr-dial-pinion" serif:id="hr dial pinion" cx="195" cy="287" r="10"/>
        <path d="M195,277C200.519,277 205,281.481 205,287C205,292.519 200.519,297 195,297C189.481,297 185,292.519 185,287C185,281.481 189.481,277 195,277ZM195,282.868C192.72,282.868 190.868,284.72 190.868,287C190.868,289.28 192.72,291.132 195,291.132C197.28,291.132 199.132,289.28 199.132,287C199.132,284.72 197.28,282.868 195,282.868Z" style="fill:url(#_Radial7);"/>
    </g>
    <defs>
        <radialGradient id="_Radial3" cx="0" cy="0" r="1" gradientUnits="userSpaceOnUse" gradientTransform="matrix(222.794,0,0,222.794,195,195)"><stop offset="0" style="stop-color:black;stop-opacity:1"/><stop offset="0.14" style="stop-color:rgb(26,26,26);stop-opacity:1"/><stop offset="0.25" style="stop-color:rgb(38,38,38);stop-opacity:1"/><stop offset="0.37" style="stop-color:black;stop-opacity:1"/><stop offset="0.41" style="stop-color:rgb(7,7,7);stop-opacity:1"/><stop offset="0.45" style="stop-color:rgb(24,24,24);stop-opacity:1"/><stop offset="0.54" style="stop-color:rgb(6,6,6);stop-opacity:1"/><stop offset="0.64" style="stop-color:black;stop-opacity:1"/><stop offset="0.75" style="stop-color:rgb(51,51,51);stop-opacity:1"/><stop offset="1" style="stop-color:black;stop-opacity:1"/></radialGradient>
        <radialGradient id="_Radial4" cx="0" cy="0" r="1" gradientUnits="userSpaceOnUse" gradientTransform="matrix(10,0,0,10,140,195)"><stop offset="0" style="stop-color:black;stop-opacity:1"/><stop offset="0.45" style="stop-color:white;stop-opacity:1"/><stop offset="0.5" style="stop-color:rgb(194,194,194);stop-opacity:1"/><stop offset="0.56" style="stop-color:rgb(130,130,130);stop-opacity:1"/><stop offset="0.71" style="stop-color:rgb(99,99,99);stop-opacity:1"/><stop offset="0.86" style="stop-color:rgb(136,136,136);stop-opacity:1"/><stop offset="1" style="stop-color:white;stop-opacity:1"/></radialGradient>
        <linearGradient id="_Linear5" x1="0" y1="0" x2="1" y2="0" gradientUnits="userSpaceOnUse" gradientTransform="matrix(-3,120,-120,-3,102,139)"><stop offset="0" style="stop-color:rgb(160,1,5);stop-opacity:1"/><stop offset="0.27" style="stop-color:rgb(245,167,81);stop-opacity:1"/><stop offset="0.4" style="stop-color:white;stop-opacity:1"/><stop offset="1" style="stop-color:rgb(179,179,179);stop-opacity:1"/></linearGradient>
        <radialGradient id="_Radial6" cx="0" cy="0" r="1" gradientUnits="userSpaceOnUse" gradientTransform="matrix(96.8969,0,0,96.8969,195,195)"><stop offset="0" style="stop-color:black;stop-opacity:1"/><stop offset="0.89" style="stop-color:black;stop-opacity:1"/><stop offset="1" style="stop-color:rgb(53,53,53);stop-opacity:1"/></radialGradient>
        <radialGradient id="_Radial7" cx="0" cy="0" r="1" gradientUnits="userSpaceOnUse" gradientTransform="matrix(10,0,0,10,195,287)"><stop offset="0" style="stop-color:black;stop-opacity:1"/><stop offset="0.45" style="stop-color:white;stop-opacity:1"/><stop offset="0.5" style="stop-color:rgb(194,194,194);stop-opacity:1"/><stop offset="0.56" style="stop-color:rgb(130,130,130);stop-opacity:1"/><stop offset="0.71" style="stop-color:rgb(99,99,99);stop-opacity:1"/><stop offset="0.86" style="stop-color:rgb(136,136,136);stop-opacity:1"/><stop offset="1" style="stop-color:white;stop-opacity:1"/></radialGradient>
    </defs>
</svg>
